<svg width="142" height="27" viewBox="0 0 142 27" fill="none" xmlns="http://www.w3.org/2000/svg">
<g id="SVG">
<g id="Clip path group">
<mask id="mask0_21_778" style="mask-type:luminance" maskUnits="userSpaceOnUse" x="0" y="1" width="25" height="26">
<g id="clip0_1191_1079">
<path id="Vector" d="M24.3674 1.80414H0.0373535V26.1305H24.3674V1.80414Z" fill="white"/>
</g>
</mask>
<g mask="url(#mask0_21_778)">
<g id="Group">
<path id="Vector_2" d="M12.2024 19.3088L18.4674 23.0896L16.8048 15.9639L22.3399 11.1696L15.051 10.5514L12.2024 3.83119L9.35376 10.5514L2.06488 11.1696L7.59997 15.9639L5.93741 23.0896L12.2024 19.3088Z" fill="#2E813A"/>
</g>
</g>
</g>
<g id="Clip path group_2">
<mask id="mask1_21_778" style="mask-type:luminance" maskUnits="userSpaceOnUse" x="29" y="1" width="25" height="26">
<g id="clip1_1191_1079">
<path id="Vector_3" d="M53.7662 1.80414H29.4362V26.1305H53.7662V1.80414Z" fill="white"/>
</g>
</mask>
<g mask="url(#mask1_21_778)">
<g id="Group_2">
<path id="Vector_4" d="M41.6012 19.3088L47.8662 23.0896L46.2036 15.9639L51.7387 11.1696L44.4498 10.5514L41.6012 3.83119L38.7526 10.5514L31.4637 11.1696L36.9988 15.9639L35.3362 23.0896L41.6012 19.3088Z" fill="#2E813A"/>
</g>
</g>
</g>
<g id="Clip path group_3">
<mask id="mask2_21_778" style="mask-type:luminance" maskUnits="userSpaceOnUse" x="58" y="1" width="26" height="26">
<g id="clip2_1191_1079">
<path id="Vector_5" d="M83.165 1.80414H58.835V26.1305H83.165V1.80414Z" fill="white"/>
</g>
</mask>
<g mask="url(#mask2_21_778)">
<g id="Group_3">
<path id="Vector_6" d="M71 19.3088L77.265 23.0896L75.6024 15.9639L81.1375 11.1696L73.8486 10.5514L71 3.83119L68.1514 10.5514L60.8625 11.1696L66.3976 15.9639L64.735 23.0896L71 19.3088Z" fill="#2E813A"/>
</g>
</g>
</g>
<g id="Clip path group_4">
<mask id="mask3_21_778" style="mask-type:luminance" maskUnits="userSpaceOnUse" x="88" y="1" width="25" height="26">
<g id="clip3_1191_1079">
<path id="Vector_7" d="M112.564 1.80414H88.2338V26.1305H112.564V1.80414Z" fill="white"/>
</g>
</mask>
<g mask="url(#mask3_21_778)">
<g id="Group_4">
<path id="Vector_8" d="M100.399 19.3088L106.664 23.0896L105.001 15.9639L110.536 11.1696L103.247 10.5514L100.399 3.83119L97.5501 10.5514L90.2612 11.1696L95.7963 15.9639L94.1338 23.0896L100.399 19.3088Z" fill="#2E813A"/>
</g>
</g>
</g>
<g id="Clip path group_5">
<mask id="mask4_21_778" style="mask-type:luminance" maskUnits="userSpaceOnUse" x="117" y="1" width="25" height="26">
<g id="clip4_1191_1079">
<path id="Vector_9" d="M141.963 1.80414H117.633V26.1305H141.963V1.80414Z" fill="white"/>
</g>
</mask>
<g mask="url(#mask4_21_778)">
<g id="Group_5">
<path id="Vector_10" d="M129.798 19.3088L136.063 23.0896L134.4 15.9639L139.935 11.1696L132.646 10.5514L129.798 3.83119L126.949 10.5514L119.66 11.1696L125.195 15.9639L123.533 23.0896L129.798 19.3088Z" fill="#2E813A"/>
</g>
</g>
</g>
</g>
</svg>
