<svg width="16" height="14" viewBox="0 0 16 14" fill="none" xmlns="http://www.w3.org/2000/svg">
<g id="Icon">
<path id="Vector" fill-rule="evenodd" clip-rule="evenodd" d="M5 3.8231C5.55228 3.8231 6 3.46751 6 3.02887C6 2.59024 5.55228 2.23465 5 2.23465C4.44772 2.23465 4 2.59024 4 3.02887C4 3.46751 4.44772 3.8231 5 3.8231ZM6 6.99999C6 7.43863 5.55228 7.79422 5 7.79422C4.44772 7.79422 4 7.43863 4 6.99999C4 6.56136 4.44772 6.20577 5 6.20577C5.55228 6.20577 6 6.56136 6 6.99999ZM6 10.9711C6 11.4098 5.55228 11.7653 5 11.7653C4.44772 11.7653 4 11.4098 4 10.9711C4 10.5325 4.44772 10.1769 5 10.1769C5.55228 10.1769 6 10.5325 6 10.9711ZM12 6.99999C12 7.43863 11.5523 7.79422 11 7.79422C10.4477 7.79422 10 7.43863 10 6.99999C10 6.56136 10.4477 6.20577 11 6.20577C11.5523 6.20577 12 6.56136 12 6.99999ZM11 11.7653C11.5523 11.7653 12 11.4098 12 10.9711C12 10.5325 11.5523 10.1769 11 10.1769C10.4477 10.1769 10 10.5325 10 10.9711C10 11.4098 10.4477 11.7653 11 11.7653ZM12 3.02887C12 3.46751 11.5523 3.8231 11 3.8231C10.4477 3.8231 10 3.46751 10 3.02887C10 2.59024 10.4477 2.23465 11 2.23465C11.5523 2.23465 12 2.59024 12 3.02887Z" fill="#212529"/>
</g>
</svg>
