<svg width="16" height="16" viewBox="0 0 16 16" fill="none" xmlns="http://www.w3.org/2000/svg">
<g id="Icon" clip-path="url(#clip0_30_278)">
<path id="Vector" fill-rule="evenodd" clip-rule="evenodd" d="M8 0.999756C4.13401 0.999756 1 4.13376 1 7.99976C1 11.8657 4.13401 14.9998 8 14.9998C11.866 14.9998 15 11.8657 15 7.99976C15 4.13376 11.866 0.999756 8 0.999756ZM0 7.99976C0 3.58148 3.58172 -0.000244141 8 -0.000244141C12.4183 -0.000244141 16 3.58148 16 7.99976C16 12.418 12.4183 15.9998 8 15.9998C3.58172 15.9998 0 12.418 0 7.99976ZM8.5 7V12H7.5V7H8.5ZM7 4.99956C7 4.44728 7.44772 3.99956 8 3.99956C8.55229 3.99956 9 4.44728 9 4.99956C9 5.55185 8.55229 5.99956 8 5.99956C7.44772 5.99956 7 5.55185 7 4.99956Z" fill="#212529"/>
</g>
<defs>
<clipPath id="clip0_30_278">
<rect width="16" height="16" fill="white"/>
</clipPath>
</defs>
</svg>
